<!-- Generated by IcoMoon.io -->
<svg version="1.1" xmlns="http://www.w3.org/2000/svg" width="32" height="32" viewBox="0 0 32 32" style="fill: #6FB737;">
<title>passwd</title>
<path d="M15.966 0c-4.598 0-8.067 3.657-8.067 8.509v2.99h-0.261c-2.417 0-4.384 2.019-4.384 4.5v11.5c0 2.481 1.967 4.501 4.384 4.501h16.725c2.417 0 4.384-2.020 4.384-4.501v-11.5c0-2.481-1.967-4.5-4.384-4.5h-0.144c-0.038-0.014-0.078-0.018-0.118-0.024v-2.967c0.002-4.85-3.496-8.508-8.135-8.508v0zM15.966 1.334c3.94 0 6.802 3.017 6.802 7.175v2.946h-13.534v-2.946c0-4.158 2.831-7.175 6.732-7.175v0zM27.414 15.999v11.5c0 1.746-1.369 3.167-3.050 3.167h-16.726c-1.682 0-3.050-1.421-3.050-3.167v-11.5c0-1.745 1.368-3.166 3.050-3.166h1.596v-0.044h13.533v0.044h1.596c1.681 0.001 3.051 1.421 3.051 3.166v0zM15.854 17.788c-1.069 0-1.935 0.893-1.935 1.996 0 0.737 0.39 1.382 0.968 1.728v3.26c0 0.55 0.433 0.999 0.968 0.999s0.968-0.448 0.968-0.999v-3.259c0.577-0.345 0.967-0.99 0.967-1.728-0.002-1.102-0.867-1.997-1.934-1.997v0z"></path>
</svg>
