<!-- Generated by IcoMoon.io -->
<svg version="1.1" xmlns="http://www.w3.org/2000/svg" width="32" height="32" viewBox="0 0 32 32" style="fill: #6FB737;">
<title>user</title>
<path d="M18.533 15.6c3.2-1.067 5.467-4.067 5.467-7.6 0-4.4-3.6-8-8-8s-8 3.6-8 8c0 3.533 2.267 6.533 5.467 7.6-5.667 1.133-10.8 5.933-10.8 11.733 0 2.6 2.067 4.667 4.667 4.667h17.333c2.6 0 4.667-2.067 4.667-4.667 0-5.8-5.133-10.6-10.8-11.733zM9.333 8c0-3.667 3-6.667 6.667-6.667s6.667 3 6.667 6.667-3 6.667-6.667 6.667-6.667-3-6.667-6.667zM24.667 30.667h-17.333c-1.867 0-3.333-1.467-3.333-3.333 0-6.133 6.333-10.667 12-10.667s12 4.533 12 10.667c0 1.867-1.467 3.333-3.333 3.333z"></path>
</svg>
